<svg width="406" height="302" viewBox="0 0 406 302" fill="none" xmlns="http://www.w3.org/2000/svg">
<path fill-rule="evenodd" clip-rule="evenodd" d="M318.902 300C340.807 273.926 354 240.29 354 203.571C354 120.729 286.843 53.5714 204 53.5714C121.157 53.5714 54 120.729 54 203.571C54 240.29 67.1931 273.926 89.0976 300H318.902Z" fill="#F0F3FD"/>
<path opacity="0.7" fill-rule="evenodd" clip-rule="evenodd" d="M163 114.932C163 115.001 162.999 115.07 162.997 115.138C167.285 115.245 170.729 118.754 170.729 123.068C170.729 127.381 167.287 130.89 163 130.997V131H162.804C162.802 131 162.799 131 162.797 131C162.794 131 162.791 131 162.789 131H147.136V130.997C147.068 130.999 147 131 146.932 131C142.551 131 139 127.449 139 123.068C139 118.687 142.551 115.136 146.932 115.136C147.001 115.136 147.07 115.136 147.138 115.138C147.136 115.07 147.136 115.001 147.136 114.932C147.136 110.551 150.687 107 155.068 107C159.449 107 163 110.551 163 114.932Z" fill="white"/>
<g opacity="0.15">
<path fill-rule="evenodd" clip-rule="evenodd" d="M111.579 156.909C111.415 157.104 111.309 157.34 111.272 157.592L106.451 190.407C106.36 191.021 106.695 191.62 107.266 191.865L111.579 193.713C111.646 193.742 111.713 193.765 111.78 193.782C111.963 193.829 112.119 193.979 112.119 194.168V204.291C112.119 204.669 112.425 204.976 112.804 204.976C113.182 204.976 113.488 204.669 113.488 204.291V192.464C113.488 192.461 113.488 192.457 113.488 192.454L113.488 155.578C113.488 155.258 113.09 155.113 112.884 155.357L111.579 156.909Z" fill="#A4A4A4"/>
<path fill-rule="evenodd" clip-rule="evenodd" d="M111.579 156.224C111.415 156.419 111.309 156.655 111.272 156.907L106.451 189.722C106.36 190.337 106.695 190.935 107.266 191.18L111.579 193.028C111.646 193.057 111.713 193.08 111.78 193.097C111.963 193.145 112.119 193.294 112.119 193.483V203.606C112.119 203.984 112.425 204.291 112.804 204.291C113.182 204.291 113.488 203.984 113.488 203.606V191.779C113.488 191.776 113.488 191.773 113.488 191.769L113.488 154.893C113.488 154.573 113.09 154.428 112.884 154.672L111.579 156.224Z" fill="#C4C4C4"/>
<path fill-rule="evenodd" clip-rule="evenodd" d="M72.7474 228.608C72.9977 228.652 73.2555 228.626 73.4919 228.532L104.321 216.3C104.899 216.071 105.25 215.482 105.176 214.865L104.621 210.206C104.612 210.134 104.598 210.064 104.58 209.997C104.529 209.815 104.581 209.606 104.744 209.511L113.511 204.45C113.839 204.261 113.951 203.842 113.762 203.514C113.573 203.187 113.154 203.074 112.826 203.263L102.582 209.178C102.58 209.179 102.578 209.18 102.576 209.182L96.2194 212.851L70.6396 227.62C70.3629 227.78 70.4364 228.198 70.751 228.254L72.7474 228.608Z" fill="#A4A4A4"/>
<path fill-rule="evenodd" clip-rule="evenodd" d="M72.4049 228.266C72.6553 228.31 72.9131 228.284 73.1494 228.19L103.979 215.958C104.556 215.729 104.907 215.139 104.834 214.522L104.278 209.863C104.269 209.791 104.256 209.722 104.237 209.655C104.187 209.473 104.238 209.263 104.402 209.169L113.169 204.107C113.496 203.918 113.608 203.499 113.419 203.172C113.23 202.844 112.811 202.732 112.484 202.921L102.24 208.835C102.238 208.837 102.235 208.838 102.233 208.839L70.2971 227.277C70.0204 227.437 70.0939 227.855 70.4085 227.911L72.4049 228.266Z" fill="#C4C4C4"/>
<path fill-rule="evenodd" clip-rule="evenodd" d="M154.7 226.956C154.614 226.717 154.462 226.507 154.263 226.349L128.255 205.766C127.767 205.381 127.082 205.372 126.584 205.744L122.827 208.555C122.769 208.598 122.715 208.645 122.667 208.694C122.534 208.829 122.327 208.889 122.163 208.795L113.397 203.733C113.069 203.544 112.65 203.656 112.461 203.984C112.272 204.311 112.384 204.73 112.712 204.919L122.955 210.834C122.958 210.835 122.96 210.836 122.962 210.838L154.898 229.276C155.175 229.436 155.501 229.163 155.392 228.863L154.7 226.956Z" fill="#A4A4A4"/>
<path fill-rule="evenodd" clip-rule="evenodd" d="M154.7 226.272C154.614 226.033 154.462 225.822 154.263 225.665L128.255 205.082C127.767 204.696 127.082 204.687 126.584 205.059L122.827 207.87C122.769 207.913 122.715 207.96 122.667 208.009C122.534 208.144 122.327 208.204 122.163 208.11L113.397 203.048C113.069 202.859 112.65 202.971 112.461 203.299C112.272 203.627 112.384 204.045 112.712 204.235L122.955 210.148C122.957 210.15 122.96 210.151 122.962 210.153L154.898 228.591C155.175 228.751 155.501 228.478 155.392 228.178L154.7 226.272Z" fill="#C4C4C4"/>
<path fill-rule="evenodd" clip-rule="evenodd" d="M114.564 206.38C115.542 205.962 116.228 204.991 116.228 203.859C116.228 202.346 115.001 201.12 113.488 201.12C111.976 201.12 110.749 202.346 110.749 203.859C110.749 204.991 111.435 205.962 112.413 206.38L106.982 297H119.995L114.564 206.38Z" fill="#A4A4A4"/>
<path fill-rule="evenodd" clip-rule="evenodd" d="M113.879 206.38C114.857 205.962 115.543 204.991 115.543 203.859C115.543 202.346 114.317 201.12 112.804 201.12C111.291 201.12 110.064 202.346 110.064 203.859C110.064 204.991 110.75 205.962 111.728 206.38L106.297 297H119.31L113.879 206.38Z" fill="#C4C4C4"/>
</g>
<g opacity="0.6">
<rect x="328" y="176" width="26.7138" height="62.9968" rx="13.3569" fill="#E9EBF2"/>
<rect x="340.759" y="201.518" width="1.59486" height="98.4823" rx="0.797428" fill="#E1E2E5"/>
<rect x="347.338" y="205.019" width="1.59486" height="13.443" rx="0.797428" transform="rotate(30 347.338 205.019)" fill="#E1E2E5"/>
<rect width="1.59486" height="18.9128" rx="0.797428" transform="matrix(0.866025 -0.5 -0.5 -0.866025 341.201 226.49)" fill="#E1E2E5"/>
</g>
<rect x="300" y="124" width="38.1994" height="90.0821" rx="19.0997" fill="#E9EBF2"/>
<rect x="318.245" y="160.489" width="2.28056" height="140.825" rx="1.14028" fill="#E1E2E5"/>
<rect x="327.653" y="165.496" width="2.28056" height="19.2228" rx="1.14028" transform="rotate(30 327.653 165.496)" fill="#E1E2E5"/>
<rect width="2.28056" height="27.0444" rx="1.14028" transform="matrix(0.866025 -0.5 -0.5 -0.866025 318.877 196.198)" fill="#E1E2E5"/>
<path fill-rule="evenodd" clip-rule="evenodd" d="M73.3818 81.71C73.1244 82.016 72.9573 82.3877 72.8992 82.7833L65.3178 134.384C65.1758 135.351 65.7023 136.292 66.6003 136.677L73.3823 139.584C73.487 139.629 73.5926 139.665 73.6983 139.692C73.9861 139.766 74.2307 140.001 74.2307 140.298V156.217C74.2307 156.811 74.7128 157.293 75.3076 157.293C75.9024 157.293 76.3845 156.811 76.3845 156.217V137.619C76.3846 137.614 76.3846 137.609 76.3846 137.604L76.3846 79.6165C76.3846 79.1141 75.7574 78.8854 75.434 79.2699L73.3818 81.71Z" fill="#DCDFE6"/>
<path fill-rule="evenodd" clip-rule="evenodd" d="M73.3818 80.6331C73.1244 80.9391 72.9573 81.3107 72.8992 81.7063L65.3178 133.307C65.1758 134.274 65.7023 135.215 66.6003 135.6L73.3823 138.507C73.487 138.552 73.5926 138.588 73.6983 138.615C73.9861 138.69 74.2307 138.924 74.2307 139.221V155.14C74.2307 155.734 74.7128 156.217 75.3076 156.217C75.9024 156.217 76.3845 155.734 76.3845 155.14V136.542C76.3846 136.537 76.3846 136.532 76.3846 136.527L76.3846 78.5395C76.3846 78.0371 75.7574 77.8085 75.434 78.193L73.3818 80.6331Z" fill="#E9EBF2"/>
<path fill-rule="evenodd" clip-rule="evenodd" d="M12.3202 194.455C12.7139 194.525 13.1193 194.484 13.4909 194.336L61.9695 175.101C62.8777 174.741 63.4296 173.815 63.3139 172.844L62.4401 165.518C62.4266 165.405 62.4049 165.295 62.3757 165.19C62.2964 164.903 62.3773 164.574 62.6347 164.426L76.4203 156.467C76.9354 156.169 77.1119 155.511 76.8145 154.995C76.5171 154.48 75.8585 154.304 75.3434 154.601L59.2353 163.901C59.2317 163.903 59.228 163.905 59.2244 163.907L9.00575 192.901C8.57065 193.152 8.6862 193.81 9.18088 193.898L12.3202 194.455Z" fill="#DCDFE6"/>
<path fill-rule="evenodd" clip-rule="evenodd" d="M11.7817 193.917C12.1754 193.986 12.5808 193.945 12.9525 193.798L61.4311 174.563C62.3393 174.203 62.8911 173.276 62.7754 172.306L61.9016 164.979C61.8881 164.866 61.8664 164.757 61.8373 164.651C61.758 164.365 61.8388 164.036 62.0963 163.887L75.8819 155.928C76.3969 155.631 76.5734 154.972 76.276 154.457C75.9787 153.942 75.32 153.765 74.8049 154.063L58.6968 163.363C58.6932 163.365 58.6896 163.367 58.686 163.369L8.4673 192.363C8.0322 192.614 8.14775 193.272 8.64243 193.359L11.7817 193.917Z" fill="#E9EBF2"/>
<path fill-rule="evenodd" clip-rule="evenodd" d="M141.189 191.858C141.053 191.482 140.815 191.152 140.501 190.903L99.604 158.537C98.8379 157.931 97.7595 157.916 96.9771 158.502L91.069 162.922C90.9778 162.99 90.8939 163.063 90.8173 163.141C90.6088 163.353 90.2834 163.448 90.0259 163.299L76.2403 155.34C75.7253 155.043 75.0666 155.219 74.7692 155.734C74.4719 156.249 74.6483 156.908 75.1634 157.205L91.2703 166.504C91.2743 166.507 91.2783 166.509 91.2823 166.512L141.501 195.505C141.936 195.756 142.448 195.328 142.276 194.855L141.189 191.858Z" fill="#DCDFE6"/>
<path fill-rule="evenodd" clip-rule="evenodd" d="M141.189 190.781C141.053 190.405 140.815 190.075 140.501 189.827L99.604 157.46C98.8379 156.854 97.7595 156.839 96.9771 157.425L91.069 161.845C90.9778 161.913 90.8939 161.986 90.8173 162.064C90.6088 162.276 90.2834 162.371 90.0259 162.222L76.2403 154.263C75.7253 153.966 75.0666 154.142 74.7692 154.657C74.4719 155.172 74.6483 155.831 75.1634 156.128L91.2705 165.428C91.2744 165.43 91.2784 165.432 91.2823 165.435L141.501 194.428C141.936 194.68 142.448 194.251 142.276 193.778L141.189 190.781Z" fill="#E9EBF2"/>
<path fill-rule="evenodd" clip-rule="evenodd" d="M78.0762 159.501C79.6144 158.844 80.6923 157.317 80.6923 155.538C80.6923 153.159 78.7637 151.231 76.3846 151.231C74.0056 151.231 72.0769 153.159 72.0769 155.538C72.0769 157.317 73.1549 158.844 74.6931 159.501L66.1539 302H86.6154L78.0762 159.501Z" fill="#DCDFE6"/>
<path fill-rule="evenodd" clip-rule="evenodd" d="M76.9992 159.501C78.5374 158.844 79.6154 157.317 79.6154 155.538C79.6154 153.159 77.6867 151.231 75.3077 151.231C72.9286 151.231 71 153.159 71 155.538C71 157.317 72.0779 158.844 73.6161 159.501L65.0769 302H85.5384L76.9992 159.501Z" fill="#E9EBF2"/>
<path opacity="0.6" fill-rule="evenodd" clip-rule="evenodd" d="M261.103 143C261.103 143.035 261.102 143.069 261.101 143.104C263.264 143.158 265 144.927 265 147.103C265 149.277 263.264 151.047 261.103 151.101V151.103H261.01C261.007 151.103 261.003 151.103 261 151.103C260.996 151.103 260.993 151.103 260.989 151.103H253.103V151.101C253.069 151.102 253.034 151.103 253 151.103C250.791 151.103 249 149.312 249 147.103C249 144.893 250.791 143.103 253 143.103C253.035 143.103 253.069 143.103 253.104 143.104C253.103 143.069 253.103 143.035 253.103 143C253.103 140.791 254.894 139 257.103 139C259.312 139 261.103 140.791 261.103 143Z" fill="white"/>
<path opacity="0.5" fill-rule="evenodd" clip-rule="evenodd" d="M283 185.314C283 185.334 283 185.354 282.999 185.374C284.25 185.405 285.254 186.428 285.254 187.686C285.254 188.944 284.25 189.968 283 189.999V190H282.942C282.942 190 282.941 190 282.941 190C282.94 190 282.94 190 282.939 190H278.373V189.999C278.353 190 278.333 190 278.314 190C277.036 190 276 188.964 276 187.686C276 186.409 277.036 185.373 278.314 185.373C278.334 185.373 278.354 185.373 278.374 185.374C278.373 185.354 278.373 185.334 278.373 185.314C278.373 184.036 279.409 183 280.687 183C281.964 183 283 184.036 283 185.314Z" fill="white"/>
<path fill-rule="evenodd" clip-rule="evenodd" d="M219.2 93.8281C219.2 86.7434 224.943 81 232.028 81C237.286 81 241.804 84.1628 243.786 88.6895C245.061 87.7876 246.617 87.2576 248.298 87.2576C252.252 87.2576 255.52 90.1909 256.046 94H258.98C262.57 94 265.48 96.9101 265.48 100.5C265.48 104.09 262.57 107 258.98 107H220.5C216.91 107 214 104.09 214 100.5C214 97.3541 216.235 94.7302 219.203 94.1293C219.201 94.0292 219.2 93.9288 219.2 93.8281Z" fill="white"/>
<path opacity="0.6" fill-rule="evenodd" clip-rule="evenodd" d="M94.1212 142.233C94.1212 139.343 96.4641 137 99.3541 137C101.499 137 103.342 138.29 104.15 140.137C104.67 139.769 105.305 139.553 105.991 139.553C107.604 139.553 108.937 140.749 109.152 142.303H110.348C111.813 142.303 113 143.49 113 144.955C113 146.419 111.813 147.606 110.348 147.606H94.6515C93.1871 147.606 92 146.419 92 144.955C92 143.671 92.9116 142.601 94.1226 142.356C94.1217 142.315 94.1212 142.274 94.1212 142.233Z" fill="white"/>
<path d="M117.59 300H106.976C94.6784 300 99.984 296.501 103.095 295.823C96.141 293.448 101.265 288.974 104.78 290.84C102.584 282.698 110.087 284.394 111.551 288.974C114.479 284.225 119.603 286.599 116.492 291.688C121.799 289.483 121.799 293.893 119.603 295.25C124.909 296.099 121.943 297.689 119.016 297.689C122.493 299.555 119.931 300 117.59 300Z" fill="#EDEEF2"/>
<path d="M123.476 299.505H118.057C111.777 299.505 114.486 297.639 116.075 297.277C112.524 296.01 115.14 293.624 116.935 294.619C115.814 290.277 119.645 291.181 120.393 293.624C121.888 291.091 124.504 292.358 122.916 295.072C125.626 293.896 125.626 296.248 124.504 296.971C127.214 297.424 125.7 298.272 124.205 298.272C125.98 299.267 124.672 299.505 123.476 299.505Z" fill="#DFE0E6"/>
<path d="M99.2465 287.448C98.9587 287.04 98.5483 286.692 98.0183 286.58C98.9099 286.159 99.3659 286.228 99.9112 286.398C101.229 286.811 101.295 288.102 100.694 288.197C100.093 288.291 99.5447 287.871 99.2465 287.448Z" fill="#E5E6ED"/>
<path d="M98.6914 286.531C99.8394 286.511 100.794 287.523 101.218 288.048L101.116 288.137C100.33 286.984 99.3147 286.526 98.6914 286.531C98.6716 286.531 98.6518 286.531 98.6318 286.532C98.6513 286.531 98.6712 286.531 98.6914 286.531Z" fill="#727785"/>
<path d="M99.691 286.425C99.9393 286.538 100.042 286.851 100.079 287.007L100.048 287.016C99.9967 286.689 99.8252 286.488 99.691 286.425C99.6867 286.423 99.6824 286.422 99.678 286.42C99.6823 286.421 99.6867 286.423 99.691 286.425Z" fill="#727785"/>
<path d="M99.3321 286.817C99.4636 286.888 99.6267 286.835 99.7031 286.802L99.696 286.787C99.5451 286.866 99.4038 286.855 99.3321 286.817C99.3298 286.816 99.3276 286.814 99.3253 286.813C99.3275 286.814 99.3298 286.816 99.3321 286.817Z" fill="#727785"/>
<path d="M100.276 286.678C100.487 286.85 100.505 287.18 100.501 287.34L100.469 287.341C100.503 287.011 100.389 286.773 100.276 286.678C100.272 286.675 100.268 286.672 100.264 286.669C100.268 286.672 100.272 286.675 100.276 286.678Z" fill="#727785"/>
<path d="M99.5911 287.211C99.829 287.344 100.142 287.239 100.29 287.177L100.278 287.147C99.9847 287.3 99.7209 287.282 99.5911 287.211C99.5869 287.209 99.5829 287.206 99.5788 287.204C99.5827 287.206 99.5868 287.209 99.5911 287.211Z" fill="#727785"/>
<path d="M99.8214 287.676C100.16 287.873 100.588 287.747 100.79 287.669L100.772 287.627C100.373 287.821 100.006 287.782 99.8214 287.676C99.8156 287.673 99.8098 287.669 99.804 287.666C99.8096 287.669 99.8154 287.673 99.8214 287.676Z" fill="#727785"/>
<path d="M123.979 290.916C124.266 290.508 124.677 290.16 125.207 290.048C124.315 289.627 123.859 289.696 123.314 289.867C121.996 290.279 121.93 291.571 122.531 291.665C123.133 291.759 123.68 291.339 123.979 290.916Z" fill="#E5E6ED"/>
<path d="M124.534 289.999C123.386 289.979 122.431 290.991 122.007 291.516L122.109 291.605C122.895 290.453 123.91 289.994 124.534 289.999C124.554 289.999 124.573 290 124.593 290.001C124.574 290 124.554 289.999 124.534 289.999Z" fill="#727785"/>
<path d="M123.534 289.894C123.286 290.006 123.184 290.32 123.146 290.475L123.177 290.484C123.229 290.157 123.4 289.956 123.534 289.894C123.538 289.892 123.543 289.89 123.547 289.888C123.543 289.89 123.539 289.892 123.534 289.894Z" fill="#727785"/>
<path d="M123.893 290.285C123.762 290.356 123.598 290.303 123.522 290.271L123.529 290.255C123.68 290.334 123.821 290.323 123.893 290.285C123.895 290.284 123.898 290.282 123.9 290.281C123.898 290.282 123.895 290.284 123.893 290.285Z" fill="#727785"/>
<path d="M122.95 290.146C122.739 290.319 122.721 290.648 122.724 290.808L122.756 290.809C122.722 290.48 122.836 290.241 122.95 290.146C122.953 290.143 122.957 290.14 122.961 290.138C122.957 290.14 122.953 290.143 122.95 290.146Z" fill="#727785"/>
<path d="M123.634 290.679C123.396 290.812 123.083 290.707 122.936 290.645L122.947 290.615C123.24 290.768 123.504 290.75 123.634 290.679C123.638 290.677 123.642 290.675 123.646 290.672C123.642 290.675 123.638 290.677 123.634 290.679Z" fill="#727785"/>
<path d="M123.404 291.145C123.065 291.341 122.637 291.215 122.435 291.138L122.453 291.095C122.852 291.29 123.219 291.25 123.404 291.145C123.41 291.141 123.415 291.138 123.421 291.134C123.416 291.138 123.41 291.141 123.404 291.145Z" fill="#727785"/>
<path d="M112.914 285.098C112.949 284.6 113.119 284.09 113.515 283.719C112.534 283.821 112.18 284.116 111.802 284.545C110.888 285.58 111.501 286.719 112.064 286.488C112.627 286.258 112.878 285.614 112.914 285.098Z" fill="#E5E6ED"/>
<path d="M112.913 284.026C111.921 284.604 111.629 285.964 111.538 286.632L111.672 286.656C111.747 285.263 112.378 284.345 112.913 284.026C112.93 284.016 112.948 284.006 112.965 283.997C112.948 284.006 112.931 284.015 112.913 284.026Z" fill="#727785"/>
<path d="M112.004 284.454C111.85 284.678 111.925 285 111.973 285.152L112.004 285.144C111.879 284.837 111.921 284.576 112.004 284.454C112.006 284.45 112.009 284.446 112.012 284.442C112.009 284.446 112.007 284.45 112.004 284.454Z" fill="#727785"/>
<path d="M112.514 284.603C112.438 284.732 112.271 284.77 112.189 284.783L112.187 284.765C112.357 284.755 112.472 284.672 112.514 284.603C112.515 284.6 112.516 284.598 112.517 284.596C112.516 284.598 112.515 284.6 112.514 284.603Z" fill="#727785"/>
<path d="M111.635 284.973C111.544 285.23 111.699 285.521 111.785 285.656L111.813 285.64C111.613 285.376 111.587 285.113 111.635 284.973C111.636 284.968 111.638 284.964 111.64 284.96C111.638 284.964 111.636 284.968 111.635 284.973Z" fill="#727785"/>
<path d="M112.496 285.074C112.362 285.311 112.04 285.383 111.881 285.406L111.875 285.375C112.206 285.354 112.422 285.202 112.496 285.074C112.499 285.07 112.501 285.066 112.503 285.062C112.501 285.066 112.499 285.07 112.496 285.074Z" fill="#727785"/>
<path d="M112.54 285.591C112.353 285.935 111.921 286.049 111.709 286.087L111.702 286.042C112.143 286.001 112.437 285.777 112.54 285.591C112.544 285.585 112.547 285.579 112.55 285.573C112.547 285.579 112.544 285.585 112.54 285.591Z" fill="#727785"/>
<path d="M102.466 285.002C102.449 284.708 102.352 284.407 102.122 284.186C102.699 284.253 102.905 284.429 103.124 284.684C103.654 285.3 103.285 285.966 102.956 285.826C102.626 285.686 102.483 285.306 102.466 285.002Z" fill="#E5E6ED"/>
<path d="M102.474 284.371C103.053 284.718 103.215 285.52 103.264 285.914L103.185 285.927C103.151 285.107 102.787 284.562 102.474 284.371C102.464 284.365 102.454 284.359 102.444 284.353C102.454 284.359 102.464 284.364 102.474 284.371Z" fill="#727785"/>
<path d="M103.006 284.629C103.095 284.762 103.049 284.951 103.019 285.04L103.001 285.035C103.077 284.856 103.054 284.702 103.006 284.629C103.004 284.627 103.003 284.625 103.001 284.622C103.003 284.624 103.004 284.627 103.006 284.629Z" fill="#727785"/>
<path d="M102.705 284.713C102.748 284.79 102.846 284.814 102.895 284.821L102.896 284.811C102.796 284.804 102.729 284.754 102.705 284.713C102.704 284.712 102.703 284.71 102.703 284.709C102.703 284.71 102.704 284.712 102.705 284.713Z" fill="#727785"/>
<path d="M103.219 284.937C103.271 285.089 103.178 285.259 103.126 285.338L103.11 285.328C103.229 285.174 103.247 285.02 103.219 284.937C103.218 284.935 103.217 284.932 103.216 284.929C103.217 284.932 103.218 284.935 103.219 284.937Z" fill="#727785"/>
<path d="M102.712 284.99C102.789 285.131 102.978 285.176 103.071 285.191L103.075 285.172C102.881 285.157 102.754 285.066 102.712 284.99C102.71 284.988 102.709 284.986 102.708 284.983C102.709 284.986 102.71 284.988 102.712 284.99Z" fill="#727785"/>
<path d="M102.682 285.295C102.79 285.498 103.043 285.568 103.168 285.592L103.172 285.566C102.913 285.539 102.741 285.404 102.682 285.295C102.68 285.291 102.678 285.287 102.677 285.284C102.678 285.287 102.68 285.291 102.682 285.295Z" fill="#727785"/>
<path d="M120.759 288.47C120.776 288.177 120.873 287.875 121.103 287.654C120.527 287.721 120.32 287.898 120.101 288.152C119.571 288.768 119.94 289.434 120.269 289.294C120.599 289.154 120.742 288.774 120.759 288.47Z" fill="#E5E6ED"/>
<path d="M120.751 287.839C120.172 288.186 120.01 288.988 119.961 289.383L120.04 289.395C120.074 288.575 120.438 288.03 120.751 287.839C120.761 287.833 120.771 287.827 120.782 287.821C120.771 287.827 120.761 287.833 120.751 287.839Z" fill="#727785"/>
<path d="M120.219 288.097C120.13 288.231 120.177 288.419 120.206 288.509L120.224 288.503C120.149 288.324 120.172 288.17 120.219 288.097C120.221 288.095 120.222 288.093 120.224 288.091C120.222 288.093 120.221 288.095 120.219 288.097Z" fill="#727785"/>
<path d="M120.52 288.181C120.477 288.258 120.379 288.282 120.33 288.289L120.329 288.279C120.429 288.272 120.496 288.223 120.52 288.181C120.521 288.18 120.522 288.179 120.522 288.177C120.522 288.179 120.521 288.18 120.52 288.181Z" fill="#727785"/>
<path d="M120.006 288.405C119.954 288.557 120.048 288.727 120.099 288.806L120.115 288.796C119.996 288.643 119.979 288.488 120.006 288.405C120.007 288.403 120.008 288.4 120.009 288.398C120.008 288.4 120.007 288.403 120.006 288.405Z" fill="#727785"/>
<path d="M120.514 288.459C120.436 288.599 120.247 288.644 120.154 288.659L120.15 288.64C120.344 288.625 120.471 288.534 120.514 288.459C120.515 288.456 120.516 288.454 120.517 288.451C120.516 288.454 120.515 288.456 120.514 288.459Z" fill="#727785"/>
<path d="M120.543 288.763C120.435 288.966 120.182 289.037 120.057 289.06L120.053 289.034C120.313 289.007 120.484 288.873 120.543 288.763C120.545 288.759 120.547 288.756 120.549 288.752C120.547 288.756 120.545 288.759 120.543 288.763Z" fill="#727785"/>
<path d="M346.59 300H335.976C323.678 300 328.984 296.501 332.095 295.823C325.141 293.448 330.265 288.974 333.78 290.84C331.584 282.698 339.087 284.394 340.551 288.974C343.479 284.225 348.603 286.599 345.492 291.688C350.799 289.483 350.799 293.893 348.603 295.25C353.909 296.099 350.943 297.689 348.016 297.689C351.493 299.555 348.931 300 346.59 300Z" fill="#EDEEF2"/>
<path d="M352.476 299.505H347.057C340.777 299.505 343.486 297.639 345.075 297.277C341.524 296.01 344.14 293.624 345.935 294.619C344.814 290.277 348.645 291.181 349.393 293.624C350.888 291.091 353.504 292.358 351.916 295.072C354.626 293.896 354.626 296.248 353.504 296.971C356.214 297.424 354.7 298.272 353.205 298.272C354.98 299.267 353.672 299.505 352.476 299.505Z" fill="#DFE0E6"/>
<path d="M328.247 287.448C327.959 287.04 327.548 286.692 327.018 286.58C327.91 286.159 328.366 286.228 328.911 286.398C330.229 286.811 330.295 288.102 329.694 288.197C329.093 288.291 328.545 287.871 328.247 287.448Z" fill="#E5E6ED"/>
<path d="M327.691 286.531C328.839 286.511 329.794 287.523 330.218 288.048L330.116 288.137C329.33 286.984 328.315 286.526 327.691 286.531C327.672 286.531 327.652 286.531 327.632 286.532C327.651 286.531 327.671 286.531 327.691 286.531Z" fill="#727785"/>
<path d="M328.691 286.425C328.939 286.538 329.042 286.851 329.079 287.007L329.048 287.016C328.997 286.689 328.825 286.488 328.691 286.425C328.687 286.423 328.682 286.422 328.678 286.42C328.682 286.421 328.687 286.423 328.691 286.425Z" fill="#727785"/>
<path d="M328.332 286.817C328.464 286.888 328.627 286.835 328.703 286.802L328.696 286.787C328.545 286.866 328.404 286.855 328.332 286.817C328.33 286.816 328.328 286.814 328.325 286.813C328.328 286.814 328.33 286.816 328.332 286.817Z" fill="#727785"/>
<path d="M329.276 286.678C329.487 286.85 329.505 287.18 329.501 287.34L329.469 287.341C329.503 287.011 329.389 286.773 329.276 286.678C329.272 286.675 329.268 286.672 329.264 286.669C329.268 286.672 329.272 286.675 329.276 286.678Z" fill="#727785"/>
<path d="M328.591 287.211C328.829 287.344 329.142 287.239 329.29 287.177L329.278 287.147C328.985 287.3 328.721 287.282 328.591 287.211C328.587 287.209 328.583 287.206 328.579 287.204C328.583 287.206 328.587 287.209 328.591 287.211Z" fill="#727785"/>
<path d="M328.821 287.676C329.16 287.873 329.588 287.747 329.79 287.669L329.772 287.627C329.373 287.821 329.006 287.782 328.821 287.676C328.816 287.673 328.81 287.669 328.804 287.666C328.81 287.669 328.815 287.673 328.821 287.676Z" fill="#727785"/>
<path d="M352.979 290.916C353.266 290.508 353.677 290.16 354.207 290.048C353.315 289.627 352.859 289.696 352.314 289.867C350.996 290.279 350.93 291.571 351.531 291.665C352.133 291.759 352.68 291.339 352.979 290.916Z" fill="#E5E6ED"/>
<path d="M353.534 289.999C352.386 289.979 351.431 290.991 351.007 291.516L351.109 291.605C351.895 290.453 352.91 289.994 353.534 289.999C353.554 289.999 353.573 290 353.593 290.001C353.574 290 353.554 289.999 353.534 289.999Z" fill="#727785"/>
<path d="M352.534 289.894C352.286 290.006 352.184 290.32 352.146 290.475L352.177 290.484C352.229 290.157 352.4 289.956 352.534 289.894C352.538 289.892 352.543 289.89 352.547 289.888C352.543 289.89 352.539 289.892 352.534 289.894Z" fill="#727785"/>
<path d="M352.893 290.285C352.762 290.356 352.598 290.303 352.522 290.271L352.529 290.255C352.68 290.334 352.821 290.323 352.893 290.285C352.895 290.284 352.898 290.282 352.9 290.281C352.898 290.282 352.895 290.284 352.893 290.285Z" fill="#727785"/>
<path d="M351.95 290.146C351.739 290.319 351.721 290.648 351.724 290.808L351.756 290.809C351.722 290.48 351.836 290.241 351.95 290.146C351.953 290.143 351.957 290.14 351.961 290.138C351.957 290.14 351.953 290.143 351.95 290.146Z" fill="#727785"/>
<path d="M352.634 290.679C352.396 290.812 352.083 290.707 351.936 290.645L351.947 290.615C352.24 290.768 352.504 290.75 352.634 290.679C352.638 290.677 352.642 290.675 352.646 290.672C352.642 290.675 352.638 290.677 352.634 290.679Z" fill="#727785"/>
<path d="M352.404 291.145C352.065 291.341 351.637 291.215 351.435 291.138L351.453 291.095C351.852 291.29 352.219 291.25 352.404 291.145C352.41 291.141 352.415 291.138 352.421 291.134C352.416 291.138 352.41 291.141 352.404 291.145Z" fill="#727785"/>
<path d="M341.914 285.098C341.949 284.6 342.119 284.09 342.515 283.719C341.534 283.821 341.18 284.116 340.802 284.545C339.888 285.58 340.501 286.719 341.064 286.488C341.627 286.258 341.878 285.614 341.914 285.098Z" fill="#E5E6ED"/>
<path d="M341.913 284.026C340.921 284.604 340.629 285.964 340.538 286.632L340.672 286.656C340.747 285.263 341.378 284.345 341.913 284.026C341.93 284.016 341.948 284.006 341.965 283.997C341.948 284.006 341.931 284.015 341.913 284.026Z" fill="#727785"/>
<path d="M341.004 284.454C340.85 284.678 340.925 285 340.973 285.152L341.004 285.144C340.879 284.837 340.921 284.576 341.004 284.454C341.006 284.45 341.009 284.446 341.012 284.442C341.009 284.446 341.007 284.45 341.004 284.454Z" fill="#727785"/>
<path d="M341.514 284.603C341.438 284.732 341.271 284.77 341.189 284.783L341.187 284.765C341.357 284.755 341.472 284.672 341.514 284.603C341.515 284.6 341.516 284.598 341.517 284.596C341.516 284.598 341.515 284.6 341.514 284.603Z" fill="#727785"/>
<path d="M340.635 284.973C340.544 285.23 340.699 285.521 340.785 285.656L340.813 285.64C340.613 285.376 340.587 285.113 340.635 284.973C340.636 284.968 340.638 284.964 340.64 284.96C340.638 284.964 340.636 284.968 340.635 284.973Z" fill="#727785"/>
<path d="M341.496 285.074C341.362 285.311 341.04 285.383 340.881 285.406L340.875 285.375C341.206 285.354 341.422 285.202 341.496 285.074C341.499 285.07 341.501 285.066 341.503 285.062C341.501 285.066 341.499 285.07 341.496 285.074Z" fill="#727785"/>
<path d="M341.54 285.591C341.353 285.935 340.921 286.049 340.709 286.087L340.702 286.042C341.143 286.001 341.437 285.777 341.54 285.591C341.544 285.585 341.547 285.579 341.55 285.573C341.547 285.579 341.544 285.585 341.54 285.591Z" fill="#727785"/>
<path d="M331.466 285.002C331.449 284.708 331.352 284.407 331.122 284.186C331.699 284.253 331.905 284.429 332.124 284.684C332.654 285.3 332.285 285.966 331.956 285.826C331.626 285.686 331.483 285.306 331.466 285.002Z" fill="#E5E6ED"/>
<path d="M331.474 284.371C332.053 284.718 332.215 285.52 332.264 285.914L332.185 285.927C332.151 285.107 331.787 284.562 331.474 284.371C331.464 284.365 331.454 284.359 331.444 284.353C331.454 284.359 331.464 284.364 331.474 284.371Z" fill="#727785"/>
<path d="M332.006 284.629C332.095 284.762 332.049 284.951 332.019 285.04L332.001 285.035C332.077 284.856 332.054 284.702 332.006 284.629C332.004 284.627 332.003 284.625 332.001 284.622C332.003 284.624 332.004 284.627 332.006 284.629Z" fill="#727785"/>
<path d="M331.705 284.713C331.748 284.79 331.846 284.814 331.895 284.821L331.896 284.811C331.796 284.804 331.729 284.754 331.705 284.713C331.704 284.712 331.703 284.71 331.703 284.709C331.703 284.71 331.704 284.712 331.705 284.713Z" fill="#727785"/>
<path d="M332.219 284.937C332.271 285.089 332.178 285.259 332.126 285.338L332.11 285.328C332.229 285.174 332.247 285.02 332.219 284.937C332.218 284.935 332.217 284.932 332.216 284.929C332.217 284.932 332.218 284.935 332.219 284.937Z" fill="#727785"/>
<path d="M331.712 284.99C331.789 285.131 331.978 285.176 332.071 285.191L332.075 285.172C331.881 285.157 331.754 285.066 331.712 284.99C331.71 284.988 331.709 284.986 331.708 284.983C331.709 284.986 331.71 284.988 331.712 284.99Z" fill="#727785"/>
<path d="M331.682 285.295C331.79 285.498 332.043 285.568 332.168 285.592L332.172 285.566C331.913 285.539 331.741 285.404 331.682 285.295C331.68 285.291 331.678 285.287 331.677 285.284C331.678 285.287 331.68 285.291 331.682 285.295Z" fill="#727785"/>
<path d="M349.759 288.47C349.776 288.177 349.873 287.875 350.103 287.654C349.527 287.721 349.32 287.898 349.101 288.152C348.571 288.768 348.94 289.434 349.269 289.294C349.599 289.154 349.742 288.774 349.759 288.47Z" fill="#E5E6ED"/>
<path d="M349.751 287.839C349.172 288.186 349.01 288.988 348.961 289.383L349.04 289.395C349.074 288.575 349.438 288.03 349.751 287.839C349.761 287.833 349.771 287.827 349.782 287.821C349.771 287.827 349.761 287.833 349.751 287.839Z" fill="#727785"/>
<path d="M349.219 288.097C349.13 288.231 349.177 288.419 349.206 288.509L349.224 288.503C349.149 288.324 349.172 288.17 349.219 288.097C349.221 288.095 349.222 288.093 349.224 288.091C349.222 288.093 349.221 288.095 349.219 288.097Z" fill="#727785"/>
<path d="M349.52 288.181C349.477 288.258 349.379 288.282 349.33 288.289L349.329 288.279C349.429 288.272 349.496 288.223 349.52 288.181C349.521 288.18 349.522 288.179 349.522 288.177C349.522 288.179 349.521 288.18 349.52 288.181Z" fill="#727785"/>
<path d="M349.006 288.405C348.954 288.557 349.048 288.727 349.099 288.806L349.115 288.796C348.996 288.643 348.979 288.488 349.006 288.405C349.007 288.403 349.008 288.4 349.009 288.398C349.008 288.4 349.007 288.403 349.006 288.405Z" fill="#727785"/>
<path d="M349.514 288.459C349.436 288.599 349.247 288.644 349.154 288.659L349.15 288.64C349.344 288.625 349.471 288.534 349.514 288.459C349.515 288.456 349.516 288.454 349.517 288.451C349.516 288.454 349.515 288.456 349.514 288.459Z" fill="#727785"/>
<path d="M349.543 288.763C349.435 288.966 349.182 289.037 349.057 289.06L349.053 289.034C349.313 289.007 349.484 288.873 349.543 288.763C349.545 288.759 349.547 288.756 349.549 288.752C349.547 288.756 349.545 288.759 349.543 288.763Z" fill="#727785"/>
<path d="M4 300H404" stroke="#20242E" stroke-width="4" stroke-linecap="round" stroke-linejoin="round"/>
<rect x="139" y="189" width="79" height="109" fill="#334680"/>
<rect x="127" y="161" width="103.126" height="28.3971" rx="1.99278" fill="#2F63FF"/>
<path d="M143.44 186.408C143.44 185.307 144.333 184.415 145.433 184.415H182.798C183.898 184.415 184.791 185.307 184.791 186.408V189.397H143.44V186.408Z" fill="white"/>
<rect x="192.762" y="171.462" width="19.4296" height="2.98917" rx="0.498195" fill="white"/>
<circle cx="132.48" cy="166.48" r="1.49458" fill="#FF4343"/>
<circle cx="142.444" cy="166.48" r="1.49458" fill="#28C760"/>
<circle cx="137.462" cy="166.48" r="1.49458" fill="#FFA113"/>
<circle cx="218.17" cy="172.957" r="3.98556" fill="white"/>
<rect x="127" y="195.383" width="103.126" height="28.3971" rx="1.99278" fill="#2F63FF"/>
<path d="M143.44 220.791C143.44 219.69 144.333 218.798 145.433 218.798H182.798C183.898 218.798 184.791 219.69 184.791 220.791V223.78H143.44V220.791Z" fill="white"/>
<rect x="192.762" y="205.845" width="19.4296" height="2.98917" rx="0.498195" fill="white"/>
<circle cx="132.48" cy="200.863" r="1.49458" fill="#FF4343"/>
<circle cx="142.444" cy="200.863" r="1.49458" fill="#28C760"/>
<circle cx="137.462" cy="200.863" r="1.49458" fill="#FFA113"/>
<circle cx="218.17" cy="207.339" r="3.98556" fill="white"/>
<rect x="127" y="229.765" width="103.126" height="28.3971" rx="1.99278" fill="#2F63FF"/>
<path d="M143.44 255.173C143.44 254.073 144.333 253.181 145.433 253.181H182.798C183.898 253.181 184.791 254.073 184.791 255.173V258.162H143.44V255.173Z" fill="white"/>
<rect x="192.762" y="240.227" width="19.4296" height="2.98917" rx="0.498195" fill="white"/>
<circle cx="132.48" cy="235.245" r="1.49458" fill="#FF4343"/>
<circle cx="142.444" cy="235.245" r="1.49458" fill="#28C760"/>
<circle cx="137.462" cy="235.245" r="1.49458" fill="#FFA113"/>
<circle cx="218.17" cy="241.722" r="3.98556" fill="white"/>
<rect x="127" y="264.148" width="103.126" height="28.3971" rx="1.99278" fill="#2F63FF"/>
<path d="M143.44 289.556C143.44 288.455 144.333 287.563 145.433 287.563H182.798C183.898 287.563 184.791 288.455 184.791 289.556V292.545H143.44V289.556Z" fill="white"/>
<rect x="192.762" y="274.61" width="19.4296" height="2.98917" rx="0.498195" fill="white"/>
<circle cx="132.48" cy="269.628" r="1.49458" fill="#FF4343"/>
<circle cx="142.444" cy="269.628" r="1.49458" fill="#28C760"/>
<circle cx="137.462" cy="269.628" r="1.49458" fill="#FFA113"/>
<circle cx="218.17" cy="276.105" r="3.98556" fill="white"/>
<rect x="266" y="212" width="24" height="24" rx="1.82606" fill="#2F63FF"/>
<path opacity="0.1" fill-rule="evenodd" clip-rule="evenodd" d="M285.312 212.153C283.831 221.565 275.779 228.796 266 229V213.826C266 212.818 266.818 212 267.826 212H284.579C284.84 212 285.087 212.055 285.312 212.153Z" fill="white"/>
<rect x="269.273" y="215.273" width="17.4545" height="17.4545" rx="8.72727" fill="#334680"/>
<rect x="273.637" y="222.364" width="3.27273" height="3.27273" rx="1.63636" fill="#20242E"/>
<rect x="279.091" y="222.364" width="3.27273" height="3.27273" rx="1.63636" fill="#20242E"/>
<path fill-rule="evenodd" clip-rule="evenodd" d="M230 247.5H274.5C278.366 247.5 281.5 250.634 281.5 254.5C281.5 258.366 278.366 261.5 274.5 261.5L257.19 261.5L256.147 261.5H248C243.858 261.5 240.5 264.858 240.5 269C240.5 273.142 243.858 276.5 248 276.5L284 276.5V273.5L248 273.5C245.515 273.5 243.5 271.485 243.5 269C243.5 266.515 245.515 264.5 248 264.5H256.147L257.19 264.5L274.5 264.5C280.023 264.5 284.5 260.023 284.5 254.5C284.5 248.977 280.023 244.5 274.5 244.5H230V247.5Z" fill="#334680"/>
<path d="M292 271H297C297.552 271 298 271.448 298 272V272C298 272.552 297.552 273 297 273H292V271Z" fill="#334680"/>
<path d="M292 277H297C297.552 277 298 277.448 298 278V278C298 278.552 297.552 279 297 279H292V277Z" fill="#334680"/>
<path d="M279 274.897C279 271.89 281.438 269.452 284.445 269.452H289.714V280.342H284.445C281.438 280.342 279 277.904 279 274.897V274.897Z" fill="#2854D9"/>
<rect x="289" y="268" width="3" height="14" rx="0.72601" fill="#2F63FF"/>
<rect x="295" y="256" width="0.99639" height="5.97834" rx="0.498195" fill="#4D79FF"/>
<rect x="299.484" y="266.462" width="0.99639" height="5.97834" rx="0.498195" transform="rotate(-90 299.484 266.462)" fill="#4D79FF"/>
<rect x="298.694" y="263.423" width="0.99639" height="5.97834" rx="0.498195" transform="rotate(-135 298.694 263.423)" fill="#4D79FF"/>
<rect x="288.462" y="295.462" width="0.99639" height="5.97834" rx="0.498195" transform="rotate(180 288.462 295.462)" fill="#4D79FF"/>
<rect x="283.978" y="285" width="0.99639" height="5.97834" rx="0.498195" transform="rotate(90 283.978 285)" fill="#4D79FF"/>
<rect x="284.768" y="288.039" width="0.99639" height="5.97834" rx="0.498195" transform="rotate(45 284.768 288.039)" fill="#4D79FF"/>
<path opacity="0.1" fill-rule="evenodd" clip-rule="evenodd" d="M184.496 189.397C184.829 185.643 185 181.841 185 178C185 172.236 184.616 166.561 183.872 161L128.993 161C127.892 161 127 161.892 127 162.993V187.404C127 188.505 127.892 189.397 128.993 189.397H143.44H184.496ZM183.82 195.383H128.993C127.892 195.383 127 196.275 127 197.375V221.787C127 222.888 127.892 223.78 128.993 223.78H176.498C179.983 214.766 182.469 205.255 183.82 195.383ZM174.006 229.765H128.993C127.892 229.765 127 230.658 127 231.758V256.17C127 257.27 127.892 258.162 128.993 258.162L143.44 258.163H156.509C163.518 249.56 169.422 240.022 174.006 229.765ZM151.315 264.148H128.993C127.892 264.148 127 265.04 127 266.141L127 284.639C135.944 278.84 144.112 271.946 151.315 264.148Z" fill="white"/>
<path d="M182.8 189.21L215.527 245.896C218.006 250.19 214.907 255.558 209.949 255.558H144.494C139.535 255.558 136.436 250.19 138.915 245.896L171.643 189.21C174.122 184.916 180.32 184.916 182.8 189.21Z" fill="white" stroke="#2F63FF" stroke-width="3.54812"/>
<path d="M163.901 247.336C161.117 247.336 159.365 246.184 158.117 244.96L159.437 243.16C160.445 244.168 161.717 245.032 163.589 245.032C165.557 245.032 167.069 243.64 167.069 241.264C167.069 238.96 165.725 237.616 163.709 237.616C162.581 237.616 161.909 237.928 160.901 238.6L159.533 237.712L160.061 229.312H169.013V231.664H162.461L162.053 236.176C162.821 235.792 163.541 235.576 164.477 235.576C167.429 235.576 169.853 237.328 169.853 241.192C169.853 245.104 166.997 247.336 163.901 247.336ZM178.02 247.336C174.54 247.336 172.284 244.24 172.284 238.096C172.284 231.976 174.54 229 178.02 229C181.452 229 183.708 232 183.708 238.096C183.708 244.24 181.452 247.336 178.02 247.336ZM178.02 245.128C179.796 245.128 181.068 243.184 181.068 238.096C181.068 233.032 179.796 231.184 178.02 231.184C176.22 231.184 174.948 233.032 174.948 238.096C174.948 243.184 176.22 245.128 178.02 245.128ZM191.708 247.336C188.228 247.336 185.972 244.24 185.972 238.096C185.972 231.976 188.228 229 191.708 229C195.14 229 197.396 232 197.396 238.096C197.396 244.24 195.14 247.336 191.708 247.336ZM191.708 245.128C193.484 245.128 194.756 243.184 194.756 238.096C194.756 233.032 193.484 231.184 191.708 231.184C189.908 231.184 188.636 233.032 188.636 238.096C188.636 243.184 189.908 245.128 191.708 245.128Z" fill="#2F63FF"/>
<path d="M176.409 215.141L175.797 205.348L175.717 201.836H179.283L179.203 205.348L178.591 215.141H176.409ZM177.5 221.927C176.382 221.927 175.504 221.102 175.504 219.904C175.504 218.707 176.382 217.882 177.5 217.882C178.618 217.882 179.496 218.707 179.496 219.904C179.496 221.102 178.618 221.927 177.5 221.927Z" fill="#2F63FF"/>
</svg>
