<svg width="34" height="32" viewBox="0 0 34 32" fill="none" xmlns="http://www.w3.org/2000/svg">
    <path d="M0.221393 8.19632L8.04251 14.8527C8.26743 15.0447 8.60025 15.0374 8.81785 14.8381L16.6353 7.63491C16.8621 7.42644 17.2113 7.42827 17.4344 7.6404L17.4856 7.68794C17.7343 7.92384 17.727 8.32067 17.4728 8.54925L0.618209 23.5737C0.36037 23.8022 0.356713 24.2027 0.607237 24.4386L8.52893 31.8429C8.63682 31.9435 8.77945 32.0002 8.9294 32.0002H9.5804C9.734 32.0002 9.88212 31.938 9.99184 31.832C10.6099 31.2303 12.9744 29.2206 17.0394 29.2206C21.1045 29.2206 23.8585 31.2943 24.5131 31.8594C24.6192 31.9508 24.7527 32.0002 24.8935 32.0002H25.5554C25.7036 32.0002 25.848 31.9435 25.9559 31.8411L33.3839 24.8738C33.6307 24.6416 33.6307 24.2484 33.3802 24.018L26.2192 17.3982C25.9961 17.1916 25.6505 17.1916 25.4256 17.3982L17.0029 25.139C16.7834 25.342 16.4451 25.3456 16.2202 25.1481L16.1525 25.0878C15.8911 24.8574 15.8874 24.4496 16.1452 24.2155L33.7789 8.18717C33.8191 8.1506 33.8575 8.10854 33.8849 8.06099C33.9361 7.96956 33.9727 7.86898 33.991 7.76475C34.0001 7.71172 34.002 7.65503 33.991 7.602C33.9837 7.56177 33.9727 7.52336 33.9599 7.48496C33.916 7.36061 33.8209 7.26003 33.7075 7.1942C32.2154 6.33838 30.8146 5.33444 29.5273 4.19334C28.1722 3.01019 26.9342 1.6972 25.8297 0.27632C25.8005 0.237918 25.7657 0.201345 25.7273 0.172086C25.5847 0.0696799 25.4146 0.0111623 25.2391 0.00567627C25.0306 0.0148196 24.8313 0.0897954 24.6685 0.217803C24.6685 0.217803 22.0737 2.94253 17.1254 2.94253C12.5611 2.94253 10.2095 0.625597 9.87115 0.265348C9.84007 0.232432 9.80532 0.201345 9.76692 0.177572C9.64989 0.104425 9.52005 0.0532218 9.38473 0.0257917C9.29879 0.00933362 9.21101 0.00750495 9.12689 0.0257917C8.97329 0.0587079 8.827 0.12454 8.70082 0.219631C8.70082 0.219631 7.36957 1.65148 4.80215 3.96293C3.43798 5.1918 0.919935 6.78824 0.289053 7.1814C0.17202 7.25455 0.0824159 7.3661 0.0421857 7.49959C0.0275566 7.54714 0.0165847 7.59651 0.00927012 7.64771C0.00195553 7.69343 0.00195553 7.74098 0.00927012 7.78486C0.020242 7.85984 0.0403571 7.93299 0.071444 8.0043C0.106188 8.08294 0.159219 8.1506 0.22505 8.20546L0.221393 8.19632Z"
          fill="url(#paint0_linear_81_19)"/>
    <defs>
        <linearGradient id="paint0_linear_81_19" x1="17.0012" y1="0.00567627" x2="17.0012" y2="32.0002"
                        gradientUnits="userSpaceOnUse">
            <stop stop-color="#0D6CFF"/>
            <stop offset="1" stop-color="#27C5FF"/>
        </linearGradient>
    </defs>
</svg>
